<svg width="19" height="19" viewBox="0 0 19 19" fill="none" xmlns="http://www.w3.org/2000/svg"><path fillRule="evenodd" clipRule="evenodd" d="M19 5V16.5C19 17.8807 17.8807 19 16.5 19C15.1193 19 14 17.8807 14 16.5V10C14 7.23858 11.7614 5 9 5H2.5C1.11929 5 0 3.88071 0 2.5C0 1.11929 1.11929 0 2.5 0H14C14.5523 0 15 0.447715 15 1V2C15 3.10457 15.8954 4 17 4H18C18.5523 4 19 4.44772 19 5Z" fill="white"/><rect y="15.7783" width="11" height="4.31243" rx="2.15621" transform="rotate(-45 0 15.7783)" fill="white"/></svg>