<svg width="33" height="32" viewBox="0 0 33 32" fill="none" xmlns="http://www.w3.org/2000/svg">
<path d="M15.5487 18.9963C14.5612 18.3488 13.5674 17.7107 12.58 17.0632C12.4511 16.9769 12.3589 16.9707 12.2255 17.0632L9.71953 18.6957C11.7305 19.9938 15.7266 22.5825 15.7266 22.5825V19.2207C15.7266 19.1444 15.6267 19.0469 15.5487 18.9963ZM12.5742 15.0419C13.5706 14.4069 14.5612 13.764 15.5461 13.1132C15.5982 13.0726 15.6412 13.022 15.6722 12.9645C15.7033 12.9071 15.7218 12.8441 15.7266 12.7794V9.54815C15.7266 9.54815 11.7305 12.1182 9.71566 13.4194C10.5987 13.9919 11.4346 14.5388 12.2796 15.0719C12.3454 15.1132 12.4987 15.0894 12.5742 15.0419ZM17.392 13.0844C18.4108 13.754 19.4341 14.4169 20.4619 15.0732C20.5003 15.0917 20.5425 15.1013 20.5854 15.1013C20.6282 15.1013 20.6704 15.0917 20.7088 15.0732L23.2714 13.4188L17.2734 9.53003V12.8644C17.2758 12.9072 17.2877 12.9489 17.3081 12.9869C17.3286 13.0248 17.3572 13.0581 17.392 13.0844ZM16.636 14.3982C16.5878 14.3766 16.535 14.3664 16.4819 14.3683C16.4289 14.3701 16.377 14.384 16.3305 14.4088C16.0198 14.5963 15.7201 14.7963 15.4172 14.9932C14.8854 15.3388 13.7833 16.0557 13.7833 16.0557L16.2867 17.6719C16.3472 17.7078 16.4165 17.7273 16.4874 17.7286C16.5584 17.7298 16.6283 17.7126 16.6901 17.6788L19.2038 16.0538C19.2038 16.0538 17.0079 14.6375 16.636 14.3982ZM9.08789 14.82V17.2957L10.997 16.0557L9.08789 14.82Z" fill="white"/>
<path d="M16.5 2C8.5265 2 2.0625 8.26813 2.0625 16C2.0625 23.7319 8.5265 30 16.5 30C24.4735 30 30.9375 23.7319 30.9375 16C30.9375 8.26813 24.4735 2 16.5 2ZM25.459 18.5625C25.459 18.9237 25.2882 19.1787 24.9749 19.3806C22.3233 21.089 19.6745 22.8013 17.0285 24.5175C16.6515 24.7625 16.3086 24.7519 15.9328 24.5088C13.3044 22.8004 10.6698 21.099 8.02893 19.4044C7.69957 19.1925 7.53973 18.9319 7.53973 18.5462V13.5625C7.53973 13.1788 7.70215 12.9163 8.03086 12.705C10.6676 11.0094 13.3121 9.3075 15.9412 7.6C16.3163 7.35687 16.656 7.35 17.033 7.59438C19.6773 9.31146 22.3255 11.0238 24.9775 12.7312C25.2792 12.9256 25.4577 13.1656 25.4577 13.5225L25.459 18.5625Z" fill="white"/>
<path d="M20.3833 17.0768C19.4127 17.716 18.4375 18.348 17.4578 18.973C17.3025 19.0718 17.2715 19.1799 17.2735 19.3599V22.5687L23.2676 18.6937L20.7842 17.0762C20.636 16.9755 20.5335 16.978 20.3833 17.0768ZM23.8477 17.2924V14.8162L21.9405 16.058L23.8477 17.2924Z" fill="white"/>
</svg>
