<svg width="33" height="33" viewBox="0 0 33 33" fill="none" xmlns="http://www.w3.org/2000/svg">
<path d="M16.5 2.0625C8.52715 2.0625 2.0625 8.69473 2.0625 16.8674C2.0625 23.4094 6.20039 28.9523 11.9367 30.9117C12.0172 30.9292 12.0993 30.9378 12.1816 30.9375C12.7166 30.9375 12.9229 30.5443 12.9229 30.2027C12.9229 29.8482 12.91 28.9201 12.9035 27.6826C12.4259 27.7946 11.9374 27.8529 11.4469 27.8566C8.66895 27.8566 8.0373 25.6975 8.0373 25.6975C7.37988 23.9895 6.43242 23.5318 6.43242 23.5318C5.17559 22.6488 6.42598 22.623 6.52266 22.623H6.5291C7.9793 22.752 8.73984 24.157 8.73984 24.157C9.46172 25.4203 10.4285 25.7748 11.2922 25.7748C11.8633 25.7634 12.4255 25.6316 12.9422 25.3881C13.0711 24.4342 13.4449 23.7832 13.8574 23.4094C10.6541 23.0355 7.2832 21.7658 7.2832 16.0939C7.2832 14.4762 7.84395 13.1549 8.76562 12.1236C8.61738 11.7498 8.12109 10.2416 8.90742 8.20488C9.0129 8.17964 9.1213 8.1688 9.22969 8.17266C9.75176 8.17266 10.9313 8.37246 12.8777 9.72598C15.2429 9.06424 17.7442 9.06424 20.1094 9.72598C22.0559 8.37246 23.2354 8.17266 23.7574 8.17266C23.8658 8.1688 23.9742 8.17964 24.0797 8.20488C24.866 10.2416 24.3697 11.7498 24.2215 12.1236C25.1432 13.1613 25.7039 14.4826 25.7039 16.0939C25.7039 21.7787 22.3266 23.0291 19.1104 23.3965C19.626 23.8541 20.09 24.7564 20.09 26.1357C20.09 28.1145 20.0707 29.7129 20.0707 30.1963C20.0707 30.5443 20.2705 30.9375 20.8055 30.9375C20.8921 30.9379 20.9785 30.9292 21.0633 30.9117C26.8061 28.9523 30.9375 23.4029 30.9375 16.8674C30.9375 8.69473 24.4729 2.0625 16.5 2.0625Z" fill="white"/>
</svg>
