<svg width="33" height="33" viewBox="0 0 33 33" fill="none" xmlns="http://www.w3.org/2000/svg">
<path d="M28.6281 2.0625H4.52977C3.21299 2.0625 2.0625 3.00996 2.0625 4.31127V28.4631C2.0625 29.7715 3.21299 30.9375 4.52977 30.9375H28.6211C29.9449 30.9375 30.9375 29.7638 30.9375 28.4631V4.31127C30.9452 3.00996 29.9449 2.0625 28.6281 2.0625ZM11.0131 26.1312H6.8765V13.2696H11.0131V26.1312ZM9.08789 11.3141H9.05824C7.73437 11.3141 6.87715 10.3286 6.87715 9.09498C6.87715 7.83879 7.75693 6.8765 9.11045 6.8765C10.464 6.8765 11.2922 7.8317 11.3218 9.09498C11.3212 10.3286 10.464 11.3141 9.08789 11.3141ZM26.1312 26.1312H21.9946V19.0988C21.9946 17.4139 21.3926 16.2628 19.896 16.2628C18.7526 16.2628 18.0759 17.0363 17.7749 17.7897C17.6621 18.0604 17.6318 18.4291 17.6318 18.8055V26.1312H13.4952V13.2696H17.6318V15.0595C18.2338 14.2022 19.1742 12.9686 21.3623 12.9686C24.0778 12.9686 26.1319 14.7585 26.1319 18.6173L26.1312 26.1312Z" fill="white"/>
</svg>
