<svg width="33" height="33" viewBox="0 0 33 33" fill="none" xmlns="http://www.w3.org/2000/svg">
<path d="M27.3281 5.15625H5.67188C4.71492 5.15727 3.79746 5.53787 3.12079 6.21454C2.44412 6.89121 2.06352 7.80867 2.0625 8.76562V24.2344C2.06352 25.1913 2.44412 26.1088 3.12079 26.7855C3.79746 27.4621 4.71492 27.8427 5.67188 27.8438H27.3281C28.2851 27.8427 29.2025 27.4621 29.8792 26.7855C30.5559 26.1088 30.9365 25.1913 30.9375 24.2344V8.76562C30.9365 7.80867 30.5559 6.89121 29.8792 6.21454C29.2025 5.53787 28.2851 5.15727 27.3281 5.15625ZM26.4142 11.1265L17.1329 18.3453C16.9519 18.486 16.7292 18.5624 16.5 18.5624C16.2708 18.5624 16.0481 18.486 15.8671 18.3453L6.58582 11.1265C6.47677 11.0442 6.38518 10.941 6.31636 10.8229C6.24755 10.7049 6.20288 10.5743 6.18495 10.4389C6.16703 10.3034 6.17621 10.1657 6.21195 10.0338C6.24769 9.90195 6.30929 9.77848 6.39317 9.6706C6.47705 9.56272 6.58152 9.47259 6.70053 9.40544C6.81954 9.33829 6.95071 9.29547 7.08642 9.27945C7.22212 9.26343 7.35966 9.27455 7.49103 9.31214C7.6224 9.34974 7.74499 9.41307 7.85168 9.49846L16.5 16.2248L25.1483 9.49846C25.3646 9.33515 25.6364 9.26352 25.9051 9.29907C26.1737 9.33462 26.4176 9.47448 26.5839 9.68842C26.7503 9.90235 26.8257 10.1732 26.7939 10.4423C26.7622 10.7114 26.6258 10.9572 26.4142 11.1265Z" fill="white"/>
</svg>
